<svg xmlns="http://www.w3.org/2000/svg" id="Calque_2" data-name="Calque 2" viewBox="0 0 2901.49 1870.43"><defs><style>      .cls-1, .cls-2 {        stroke-width: 0px;      }      .cls-2 {        fill: #2aacf4;      }    </style></defs><g id="Layer_1" data-name="Layer 1"><g><g><g><polygon class="cls-1" points="494.12 858.17 744.62 283.49 493.91 858.17 494.12 858.17"></polygon><polygon class="cls-1" points="1113.15 1125.64 1211.31 1349.93 1489.01 1349.93 1346.71 1032.71 1113.15 1125.64"></polygon><path class="cls-1" d="M1801.24,525.92V241.06h277.7c130.9,0,227.57,40.39,301.18,113.34l262.36-77.73h0C2535.83,117.63,2348.2,0,2078.94,0h-530.33v600.77h0s252.63-74.85,252.63-74.85h0Z"></path></g><path class="cls-2" d="M2730.12,482.3c-4.18-16.55-8.89-32.93-14.2-49.1-5.23-15.93-11.05-31.64-17.39-47.11l202.95-80.75L403.94,1058.78l33.52-76.29,307.16-699,216.84,493.83,238.56-71.41L883.47,0h-277.7L120.67,1081.43l-34.34,76.55-27.58,61.48L.23,1349.93h275.77l1272.62-506.33v506.33h530.33c472.48,0,680.75-345.2,674.97-686.54-1.06-61.17-8.9-122.19-23.79-181.09ZM2078.94,1105.02h-277.7v-361.92l662.3-263.5c6.26,14.93,11.75,30.22,16.41,45.81,5.05,16.88,9.17,34.09,12.41,51.5,5.19,27.85,8.14,56.2,8.92,84.57,5.78,219.85-115.71,443.55-422.34,443.55Z"></path></g><g><polygon class="cls-1" points="96.09 1688.98 290.07 1688.98 290.07 1613.78 96.09 1613.78 96.09 1523.06 315.74 1523.06 315.74 1445.47 0 1445.47 0 1863.27 323.5 1863.27 323.5 1785.68 96.09 1785.68 96.09 1688.98"></polygon><polygon class="cls-1" points="761 1445.47 655.95 1445.47 561.94 1580.73 466.15 1445.47 356.33 1445.47 502.87 1650.52 348.57 1863.27 459.58 1863.27 558.82 1718.07 659.53 1863.27 771.14 1863.27 615.28 1647.22 761 1445.47"></polygon><path class="cls-1" d="M1086.88,1463.67c-27.06-12.13-59.29-18.2-96.69-18.2h-180.85v417.8h96.69v-115.19h84.16c37.4,0,69.63-6.06,96.69-18.2,27.05-12.13,47.94-29.54,62.67-52.23,14.72-22.68,22.08-49.54,22.08-80.58s-7.37-58.49-22.08-81.17c-14.73-22.68-35.62-40.08-62.67-52.23ZM1051.67,1650.19c-14.73,12.74-37.01,19.1-66.85,19.1h-78.79v-145.04h78.79c29.84,0,52.12,6.37,66.85,19.1,14.72,12.74,22.08,30.65,22.08,53.72s-7.37,40.39-22.08,53.12Z"></path><polygon class="cls-1" points="1336.37 1688.98 1530.35 1688.98 1530.35 1613.78 1336.37 1613.78 1336.37 1523.06 1556.01 1523.06 1556.01 1445.47 1240.27 1445.47 1240.27 1863.27 1563.77 1863.27 1563.77 1785.68 1336.37 1785.68 1336.37 1688.98"></polygon><path class="cls-1" d="M1918.31,1728.97c27.05-11.94,47.94-29.14,62.67-51.63,14.72-22.48,22.08-49.24,22.08-80.28s-7.37-58.49-22.08-81.17c-14.73-22.68-35.62-40.08-62.67-52.23-27.06-12.13-59.3-18.2-96.69-18.2h-180.85v417.8h96.69v-116.39h84.16c1.52,0,3.03-.03,4.53-.05l80.22,116.43h104.45l-93.34-133.94c.27-.12.55-.23.83-.35ZM1883.09,1543.35c14.72,12.74,22.08,30.65,22.08,53.72s-7.37,40.49-22.08,53.42c-14.73,12.93-37.01,19.4-66.85,19.4h-78.79v-145.63h78.79c29.84,0,52.12,6.37,66.85,19.1Z"></path><polygon class="cls-1" points="2026.34 1524.25 2160.03 1524.25 2160.03 1863.27 2256.73 1863.27 2256.73 1524.25 2390.42 1524.25 2390.42 1445.47 2026.34 1445.47 2026.34 1524.25"></polygon><path class="cls-1" d="M2740.48,1686.6c-8.95-14.32-20.59-25.86-34.92-34.62-14.32-8.75-30.14-15.71-47.45-20.89-17.31-5.17-34.62-9.75-51.93-13.73-17.31-3.97-33.13-7.95-47.45-11.94-14.32-3.97-25.87-9.25-34.62-15.82-8.76-6.56-13.13-15.22-13.13-25.96,0-9.15,2.58-17.21,7.76-24.17,5.17-6.96,13.73-12.63,25.66-17.01,11.94-4.37,27.25-6.56,45.96-6.56s37.8,2.68,57.3,8.06c19.49,5.37,38.99,13.63,58.49,24.77l29.84-73.41c-19.5-12.33-41.98-21.58-67.44-27.75-25.47-6.16-51.33-9.25-77.59-9.25-39.39,0-72.13,5.88-98.18,17.61-26.07,11.74-45.57,27.46-58.49,47.15-12.93,19.7-19.4,41.48-19.4,65.36,0,22.29,4.48,40.59,13.43,54.91,8.95,14.32,20.59,25.87,34.92,34.62,14.32,8.76,30.14,15.92,47.45,21.49,17.31,5.58,34.62,10.25,51.93,14.03,17.31,3.79,33.13,7.76,47.45,11.94,14.32,4.18,25.86,9.55,34.62,16.12,8.75,6.57,13.13,15.43,13.13,26.56,0,8.76-2.79,16.52-8.36,23.28-5.58,6.77-14.23,12.04-25.96,15.82-11.74,3.79-27.16,5.67-46.26,5.67-25.07,0-49.84-4.08-74.31-12.24-24.47-8.15-45.66-18.6-63.56-31.34l-32.83,72.82c18.7,14.32,43.37,25.96,74.01,34.92,30.64,8.95,62.67,13.43,96.09,13.43,39.78,0,72.71-5.97,98.78-17.91,26.06-11.94,45.66-27.65,58.79-47.15,13.13-19.49,19.7-40.98,19.7-64.46,0-21.88-4.48-39.99-13.43-54.31Z"></path></g></g></g></svg>