<?xml version="1.0" encoding="UTF-8"?> <svg xmlns="http://www.w3.org/2000/svg" xmlns:xlink="http://www.w3.org/1999/xlink" width="306.175" height="55.682" viewBox="0 0 306.175 55.682"><defs><clipPath id="clip-path"><rect id="Rectangle_5" data-name="Rectangle 5" width="58.11" height="55.682" fill="#66533b"></rect></clipPath></defs><g id="Groupe_56" data-name="Groupe 56" transform="translate(-792.598 -64)"><path id="Tracé_42" data-name="Tracé 42" d="M.5,36l.15-.3,2.5-.2q2.4-.2,2.4-.75V5.85q0-.45-2.9-.65L.7,5.05l-.15-.3H14.1q5.3,0,8.1,1.925A6.252,6.252,0,0,1,25,12.15a7.462,7.462,0,0,1-3.175,6.275A13.461,13.461,0,0,1,13.55,20.8a34.461,34.461,0,0,1-4.75-.4V34.9q0,.5,2.9.65l2.45.15.15.3ZM13.55,20.4q3.95,0,5.975-1.975A7.639,7.639,0,0,0,21.55,12.7,7.416,7.416,0,0,0,19.5,7.025Q17.45,5.1,12.75,5.15L8.8,5.2V19.75A17.033,17.033,0,0,0,13.55,20.4Zm26.1,16.05a2.51,2.51,0,0,1-1.925-.925,3.5,3.5,0,0,1-.875-2.275v-.1q-3.8,3.25-6.45,3.25a4.816,4.816,0,0,1-3.525-1.3,4.307,4.307,0,0,1-1.325-3.2,5.234,5.234,0,0,1,2.55-4.35q2.55-1.8,9.1-3.5l.1-2.95q.3-5.95-4.75-5.95a6.264,6.264,0,0,0-3.05.825Q28,16.8,28,17.4a5.837,5.837,0,0,0,.6.75,2.212,2.212,0,0,1,.6,1.45,1.762,1.762,0,0,1-.525,1.25,1.814,1.814,0,0,1-1.375.55,1.679,1.679,0,0,1-1.9-1.9q0-1.7,3.125-3.5A11.859,11.859,0,0,1,34.4,14.2a5.908,5.908,0,0,1,4.35,1.45Q40.2,17.1,40,20.8l-.5,12.1a2.087,2.087,0,0,0,.325,1.5,1.616,1.616,0,0,0,1.225.4,3.77,3.77,0,0,0,2.4-1.5l.25.15a10.684,10.684,0,0,1-.725.875q-.675.775-1,1.075a5.36,5.36,0,0,1-1,.675A2.717,2.717,0,0,1,39.65,36.45ZM32,34.8a7.624,7.624,0,0,0,4.95-2.25l.25-8a31.813,31.813,0,0,0-4.625,1.475,8.224,8.224,0,0,0-2.675,1.65,5.133,5.133,0,0,0-1.15,1.65,5.046,5.046,0,0,0-.3,1.825,3.711,3.711,0,0,0,.925,2.7A3.5,3.5,0,0,0,32,34.8ZM43.75,36l.1-.3.85-.05q1.85-.1,2.05-.4a.944.944,0,0,0,.05-.3V8a8.275,8.275,0,0,0-.35-3.05,2.1,2.1,0,0,0-1.7-.9l-1.1-.1.05-.2,5.9-1.4v32.7q0,.3.425.425a11.191,11.191,0,0,0,2.075.175l.7.05.15.3Zm24.9.45a2.51,2.51,0,0,1-1.925-.925,3.5,3.5,0,0,1-.875-2.275v-.1q-3.8,3.25-6.45,3.25a4.816,4.816,0,0,1-3.525-1.3,4.307,4.307,0,0,1-1.325-3.2,5.234,5.234,0,0,1,2.55-4.35q2.55-1.8,9.1-3.5l.1-2.95q.3-5.95-4.75-5.95a6.264,6.264,0,0,0-3.05.825Q57,16.8,57,17.4a5.837,5.837,0,0,0,.6.75,2.212,2.212,0,0,1,.6,1.45,1.762,1.762,0,0,1-.525,1.25,1.814,1.814,0,0,1-1.375.55,1.679,1.679,0,0,1-1.9-1.9q0-1.7,3.125-3.5A11.859,11.859,0,0,1,63.4,14.2a5.908,5.908,0,0,1,4.35,1.45Q69.2,17.1,69,20.8l-.5,12.1a2.087,2.087,0,0,0,.325,1.5,1.616,1.616,0,0,0,1.225.4,3.77,3.77,0,0,0,2.4-1.5l.25.15a10.682,10.682,0,0,1-.725.875q-.675.775-1,1.075a5.36,5.36,0,0,1-1,.675A2.717,2.717,0,0,1,68.65,36.45ZM61,34.8a7.624,7.624,0,0,0,4.95-2.25l.25-8a31.813,31.813,0,0,0-4.625,1.475,8.224,8.224,0,0,0-2.675,1.65,5.133,5.133,0,0,0-1.15,1.65,5.046,5.046,0,0,0-.3,1.825,3.711,3.711,0,0,0,.925,2.7A3.5,3.5,0,0,0,61,34.8Zm17.5-26a1.774,1.774,0,0,1-1.5.65,1.96,1.96,0,0,1-1.575-.675A2.169,2.169,0,0,1,74.85,7.35a2.361,2.361,0,0,1,.575-1.475A1.9,1.9,0,0,1,77,5.15a1.776,1.776,0,0,1,1.55.7,2.533,2.533,0,0,1,.5,1.5A2.322,2.322,0,0,1,78.5,8.8ZM72.9,36l.15-.3.9-.05q1.85-.1,2.05-.4a.944.944,0,0,0,.05-.3V20.05a7.352,7.352,0,0,0-.4-3A1.878,1.878,0,0,0,74,16.2l-1.15-.15.05-.2,5.95-1.55V35.05q0,.3.4.4a16.373,16.373,0,0,0,2.1.2l.7.05.15.3Zm17.45.6a15.336,15.336,0,0,1-6.15-1.15l-.65-5.5h.3L84.9,32.2a7.391,7.391,0,0,0,2.525,3A5.68,5.68,0,0,0,90.6,36.25a5.22,5.22,0,0,0,3.7-1.3,4.365,4.365,0,0,0,1.4-3.35,4.268,4.268,0,0,0-1.4-3.35,11.721,11.721,0,0,0-4.4-2.15q-5.6-1.75-5.6-5.85a5.52,5.52,0,0,1,2-4.275A6.853,6.853,0,0,1,91,14.2a9.376,9.376,0,0,1,4.25,1l1.6-.55.25,5.05-.35.05-2.3-3.85A6.287,6.287,0,0,0,91,14.6a4.666,4.666,0,0,0-3.225,1.05A3.751,3.751,0,0,0,86.6,18.6a3.561,3.561,0,0,0,1.2,2.9,12.451,12.451,0,0,0,3.8,1.9q1.65.6,2.425.925a12.643,12.643,0,0,1,1.95,1.1,4.435,4.435,0,0,1,1.675,1.9,6.687,6.687,0,0,1,.5,2.725A5.867,5.867,0,0,1,95.9,34.7,8.308,8.308,0,0,1,90.35,36.6Zm26.31-.24a1.894,1.894,0,0,1-1.095-.525,1.407,1.407,0,0,1-.645-1,18.344,18.344,0,0,1,1.29-4.26h-.06q-.72,1.2-1.065,1.74t-.885,1.365a11.565,11.565,0,0,1-.855,1.185q-.315.36-.735.765a2.643,2.643,0,0,1-.78.555,1.931,1.931,0,0,1-.75.15,2.237,2.237,0,0,1-1.725-.78,2.883,2.883,0,0,1-.7-2.01,9.368,9.368,0,0,1,1.41-4.665,20.3,20.3,0,0,1,3.21-4.245,4.547,4.547,0,0,1,3.06-1.71q1.32,0,1.38,3.06h.06l2.55-8.4q.12-.69-.15-.69l-3-.09.06-.18,5.58-.51-3.6,10.86-2.58,8.07,1.5.18,2.07-3.27.18.09Q118.28,36.36,116.66,36.36Zm-4.56-1.5q1.62,0,4.35-5.55a7.138,7.138,0,0,0,.93-2.79,2.409,2.409,0,0,0-.66-1.62,2.046,2.046,0,0,0-1.59-.75,2.15,2.15,0,0,0-1.53.72,9.972,9.972,0,0,0-2,3.525,12.527,12.527,0,0,0-.915,4.305,2.7,2.7,0,0,0,.4,1.6A1.207,1.207,0,0,0,112.1,34.86Zm18.15,1.53q-.45,0-.9-.645a2.3,2.3,0,0,1-.45-1.335,11.463,11.463,0,0,1,.615-2.64q.615-1.98,1.515-4.17l-.12-.06q-1.26,2.43-2.7,4.68a20.074,20.074,0,0,1-2.25,3.06,2.911,2.911,0,0,1-2.13,1.05,2.033,2.033,0,0,1-1.335-.555,1.622,1.622,0,0,1-.645-1.245,19.823,19.823,0,0,1,1.56-4.74l2.22-5.64L124.1,24l-2.07,3.3-.18-.09a15.537,15.537,0,0,1,2.025-3.27q.945-1.08,1.575-1.08a2.978,2.978,0,0,1,1.29.435q.81.435.81.7a4.966,4.966,0,0,1-.315.975q-.315.825-.945,2.385t-.96,2.43q-1.56,4.08-1.56,4.29a.916.916,0,0,0,.4.735,1.452,1.452,0,0,0,.915.315q.72,0,2.52-2.55a44,44,0,0,0,3.69-6.57l1.08-2.88,1.95.15-1.71,4.95-2.1,6.84,1.41.15L134,31.95l.18.09Q132.11,36.39,130.25,36.39ZM144.37,36l.15-.3.9-.05q1.85-.1,2.05-.4a.944.944,0,0,0,.05-.3V20.15a7.716,7.716,0,0,0-.4-3.1,1.878,1.878,0,0,0-1.65-.85l-1.15-.15.05-.2,6-1.55-.2,8.75h.05q2.25-8.85,6.7-8.85a2.693,2.693,0,0,1,1.95.675,2.176,2.176,0,0,1,.7,1.625,2.289,2.289,0,0,1-.575,1.525,1.85,1.85,0,0,1-1.475.675,1.916,1.916,0,0,1-1.525-.75,3.477,3.477,0,0,1-.675-2.15,4.142,4.142,0,0,0-2.8,2.15,27.027,27.027,0,0,0-2.2,6.15V35.05a.484.484,0,0,0,.075.325,1.531,1.531,0,0,0,.55.175,8.224,8.224,0,0,0,1.525.1l1.65.05.15.3Zm26.65.6a10.45,10.45,0,0,1-7.75-3.2,10.761,10.761,0,0,1-3.15-7.85,11.2,11.2,0,0,1,3.175-8.025A10.689,10.689,0,0,1,178.67,17.4a10.761,10.761,0,0,1,3.15,7.85,11.224,11.224,0,0,1-3.15,8.05A10.181,10.181,0,0,1,171.02,36.6Zm.05-.3a6.29,6.29,0,0,0,5.25-3.05,12.6,12.6,0,0,0,2.15-7.45q0-6.4-2.8-9.2a6.28,6.28,0,0,0-4.75-2,6.5,6.5,0,0,0-5.35,2.95,11.785,11.785,0,0,0-2.2,7.25q0,6.65,3.1,9.75A6.22,6.22,0,0,0,171.07,36.3Zm20,.3q-4.25,0-4.2-4.4l.35-15.8-3.85-.05.5-1.5h3.4l.1-4.3h2.75l-.05,4.35h6.75l-.5,1.5h-6.25l-.35,15.25a3.309,3.309,0,0,0,.8,2.575,2.961,2.961,0,0,0,2.15.825,3.615,3.615,0,0,0,1.375-.275,5.479,5.479,0,0,0,1-.5q.325-.225,1.05-.85t.875-.725l.3.1q-.15.15-.575.6t-.575.575q-.15.125-.55.5T195,35q-.175.15-.55.45a2.681,2.681,0,0,1-.625.4,6.584,6.584,0,0,0-.625.3,3.029,3.029,0,0,1-.675.275,6.151,6.151,0,0,1-.675.125A5.86,5.86,0,0,1,191.07,36.6Zm12.6-27.8a1.774,1.774,0,0,1-1.5.65,1.96,1.96,0,0,1-1.575-.675,2.169,2.169,0,0,1-.575-1.425,2.361,2.361,0,0,1,.575-1.475,1.9,1.9,0,0,1,1.575-.725,1.776,1.776,0,0,1,1.55.7,2.533,2.533,0,0,1,.5,1.5A2.322,2.322,0,0,1,203.67,8.8ZM198.07,36l.15-.3.9-.05q1.85-.1,2.05-.4a.944.944,0,0,0,.05-.3V20.05a7.352,7.352,0,0,0-.4-3,1.878,1.878,0,0,0-1.65-.85l-1.15-.15.05-.2,5.95-1.55V35.05q0,.3.4.4a16.373,16.373,0,0,0,2.1.2l.7.05.15.3Zm10.2,0,.15-.3.9-.05q1.85-.1,2.05-.4a.944.944,0,0,0,.05-.3V20.15a7.716,7.716,0,0,0-.4-3.1,1.878,1.878,0,0,0-1.65-.85l-1.15-.15.05-.2,6-1.55-.15,4.5.1.15q.1-.1.6-.525t.675-.6q.175-.175.7-.625a9.423,9.423,0,0,1,.825-.65q.3-.2.825-.575a7.128,7.128,0,0,1,.925-.575q.4-.2.925-.475a4.81,4.81,0,0,1,1-.4q.475-.125,1.025-.225a5.874,5.874,0,0,1,1.05-.1,4.664,4.664,0,0,1,3.6,1.35,6.572,6.572,0,0,1,1.65,4.7V35a.325.325,0,0,0,.1.275,2.1,2.1,0,0,0,.625.175q.525.1,1.725.2l.75.05.15.3h-9.25l.15-.3.9-.05q2.1-.1,2.1-.7V20.85a4.627,4.627,0,0,0-1.15-3.375,4.341,4.341,0,0,0-3.25-1.175q-3.35,0-6.65,3.15v15.6q0,.3.425.4a17.4,17.4,0,0,0,2.125.2l.65.05.2.3Z" transform="translate(867.402 78)" fill="#212806"></path><g id="Groupe_7" data-name="Groupe 7" transform="translate(792.598 64)"><g id="Groupe_6" data-name="Groupe 6" clip-path="url(#clip-path)"><path id="Tracé_10" data-name="Tracé 10" d="M54.821,331.416a9.928,9.928,0,0,1-7.143-2.655.789.789,0,0,0-1.139-.117c-3.058,1.963-6.431,2.294-9.895,2.242-2.15-.033-3.884-1.168-5.637-2.261a.793.793,0,0,0-1.079.006,14.077,14.077,0,0,1-8.6,2.728,12.792,12.792,0,0,1-8.084-2.987c-.239-.183-.392-.377-.752-.128a15.119,15.119,0,0,1-7.552,2.4,17.131,17.131,0,0,1-3.755.006c-.464-.064-1.278-.018-1.178-.724.1-.74.763-.163,1.158-.125a19.377,19.377,0,0,0,8.807-1.153,6.642,6.642,0,0,0,2.22-1.226c.47-.428.776-.394,1.257.007a12.1,12.1,0,0,0,8.846,3.054,13.892,13.892,0,0,0,7.575-2.82c.361-.272.671-.457,1.091-.105,3.43,2.876,7.278,2.923,11.307,1.99a15.823,15.823,0,0,0,4.057-1.727,1.331,1.331,0,0,1,1.819.226c2.619,2.535,5.793,2.785,9.093,2.355.363-.047.783-.22.864.293.074.464-.365.448-.686.528a13.162,13.162,0,0,1-2.595.195" transform="translate(0 -275.734)" fill="#66533b"></path><path id="Tracé_11" data-name="Tracé 11" d="M72.41,89.052c0,4.173,0,7.54,0,10.906a12.128,12.128,0,0,1-.141,1.423.457.457,0,0,1-.468.427.507.507,0,0,1-.546-.469,6.543,6.543,0,0,1,0-1.032c.375-6.026-.178-12.054.008-18.076A29.134,29.134,0,0,0,68.973,69.6c-2.394-5.558-6.588-9.162-12.087-11.51A24.115,24.115,0,0,0,41.411,56.6C33,58.647,26.9,63.643,23.509,71.714a22.542,22.542,0,0,0-1.258,6.933,85.455,85.455,0,0,0-.232,10.09c.129,3.825.6,7.638.388,11.475a1.773,1.773,0,0,1-.055.6.538.538,0,0,1-.6.4.49.49,0,0,1-.411-.493c0-.066-.007-.133,0-.2.256-6.661-.844-13.111-.322-19.776.329-4.2.586-8.4,2.741-12.217A27.382,27.382,0,0,1,35.594,57.48a25.933,25.933,0,0,1,13.9-2.44,26.61,26.61,0,0,1,9.635,2.927C66.964,61.675,70.7,68.262,72.047,76.5c.727,4.436.144,8.911.363,12.556" transform="translate(-17.594 -46.322)" fill="#66533b"></path><path id="Tracé_12" data-name="Tracé 12" d="M50.782,108.486c.066-4.283-.261-8.6.771-12.819,1.467-6,5.29-10.114,10.487-13.167a16.184,16.184,0,0,1,6.62-1.914c3.734-.413,7.446-.468,10.958,1.133,6.072,2.769,10.785,6.9,12.9,13.448,1.1,3.424,1.11,7.01,1.141,10.568.026,3.065,0,6.131-.038,9.2-.031,2.3-.084,3.937-.167,6.233-.023.627.014.953-.594.948s-.474-.56-.468-.917c.067-3.529.179-6.4.209-9.93a80.019,80.019,0,0,0-.535-13.157c-.872-5.552-3.894-9.706-8.406-12.871a19.719,19.719,0,0,0-8.315-3.621,26.111,26.111,0,0,0-4.385-.1A17.736,17.736,0,0,0,59.594,85.4,19.351,19.351,0,0,0,52,99.921c-.357,6.466-.136,12.923.054,19.383.026.9.047.9.1,1.8.019.361-.061.7-.493.728-.45.033-.528-.294-.554-.661-.223-3.123-.261-5.356-.312-8.486-.023-1.4,0-2.8,0-4.2" transform="translate(-42.8 -67.72)" fill="#66533b"></path><path id="Tracé_13" data-name="Tracé 13" d="M110.81,131.667c0,4.925.022,6.487.021,9.988a5.543,5.543,0,0,1-.013.7c-.041.322-.2.6-.559.589-.378-.007-.476-.3-.477-.633,0-1.4-.021-.859-.034-2.258-.048-5.362-.085-10.724-.159-16.085a26.1,26.1,0,0,0-.843-6.608,11.3,11.3,0,0,0-4.951-6.866,16.842,16.842,0,0,0-10.051-2.955c-6.164.382-11.3,2.507-14.179,8.468a16.945,16.945,0,0,0-1.306,6.29c-.419,5.641-.93,11.281-.868,16.95.016,1.429.271.605.075,2.037-.048.353.034.806-.509.8-.583,0-.549-.467-.551-.869a113.919,113.919,0,0,1,.3-12.13c.289-3.412.49-6.828.859-10.237.469-4.333,5.421-10.254,9.879-11.242,2.836-.629,5.628-1.4,8.541-1.078,5.769.642,11.924,3.906,13.713,10.169a26.182,26.182,0,0,1,.9,5.9c.173,3.494.245,6.993.214,9.068" transform="translate(-64.386 -89.733)" fill="#66533b"></path><path id="Tracé_14" data-name="Tracé 14" d="M128.193,159.916a116.572,116.572,0,0,0-.449-13.763,6.64,6.64,0,0,0-1.8-3.706c-3.781-4.167-10.033-5.883-15.469-2.689a9.278,9.278,0,0,0-4.838,8.487c.014,6.3-.642,12.576-.442,18.876.028.9.1,1.25.133,2.149.013.393.025.89-.523.917-.625.03-.6-.495-.612-.926a143.149,143.149,0,0,1,.295-15.627,47.558,47.558,0,0,0,.059-4.995c-.212-5.91,3.837-10.051,9.02-11.28,5.433-1.289,11.9,1.493,14.512,6.309a9.486,9.486,0,0,1,.879,3.842,207.423,207.423,0,0,1,.34,20.77c-.006.465.042.619.019,1.083-.019.388-.009.883-.593.846-.472-.03-.534-.443-.536-.819-.008-1.366.007-2.419.008-3.786q0-2.844,0-5.688" transform="translate(-87.746 -115.519)" fill="#66533b"></path></g></g></g></svg> 