<?xml version="1.0" encoding="UTF-8"?><svg id="Calque_2" xmlns="http://www.w3.org/2000/svg" viewBox="0 0 1149.99 224.12"><defs><style>.cls-1{fill:#7b7;}.cls-2{fill:#fff;}</style></defs><g id="Calque_1-2"><path class="cls-2" d="M409.34,39.44h46.44v6.04l-17.99,10.94-42.67,132.43h-27.17l-45.36-133.57-16.77-9.81v-6.04h60.14v6.04l-14.95,8.68,39.01,116.82,37.09-115.69-17.77-9.81v-6.04Z"/><path class="cls-2" d="M500.67,171.44c12.07,0,21.59-3.02,27.86-7.43l3.72,4.88c-6.97,9.98-20.43,22.29-44.58,22.29-31.81,0-51.78-20.9-51.78-53.87s21.13-59.44,52.47-59.44c25.54,0,43.42,17.18,43.89,47.13h-73.37v.7c0,28.56,13.7,45.74,41.79,45.74ZM484.19,87.16c-13.7,0-22.52,10.91-24.85,29.02h46.44c-.93-18.81-8.13-29.02-21.59-29.02Z"/><path class="cls-2" d="M594.91,105.27c-6.97,0-12.54,1.39-16.72,3.95v63.79l18.81,9.81v6.04h-59.44v-6.04l15.79-9.81v-77.49l-15.09-9.06v-6.27h39.47v24.15c7.89-13.23,18.58-24.84,33.67-24.84h5.81v25.77h-22.29Z"/><path class="cls-2" d="M707.76,168.65h14.4v20.2h-17.64c-11.15,0-17.88-7.2-19.97-15.56-7.43,9.29-17.42,17.41-32.27,17.41-16.49,0-27.86-11.15-27.86-27.17,0-13.47,9.06-22.06,24.15-29.02,11.61-5.34,23.22-8.82,34.6-11.61v-15.32c0-11.38-6.97-17.18-20.9-17.18-5.11,0-9.75.7-13.7,1.63v22.06h-24.61c.93-11.38,8.82-20.43,18.58-26.47,9.75-6.27,21.59-9.75,33.67-9.75,19.51,0,31.58,9.29,31.58,29.02v61.76ZM664.8,174.46c7.43,0,13.47-2.55,18.34-6.5v-36.45c-8.59,2.32-16.02,4.88-23.22,8.59-7.66,3.95-11.15,8.82-11.15,17.18,0,11.15,6.27,17.18,16.02,17.18Z"/><path class="cls-2" d="M777.32,191.18c-29.02,0-46.9-19.74-46.9-48.3,0-18.58,7.43-33.44,18.11-44.35,10.68-10.68,26.94-20.2,44.58-20.2h20.2v22.06h-39.94c-15.33,0-24.38,6.5-24.38,28.33,0,26.01,14.63,42.26,41.79,42.26,9.06,0,17.18-1.86,22.76-4.41l3.02,4.88c-6.04,9.29-18.81,19.74-39.24,19.74Z"/><path class="cls-2" d="M909.17,168.65h14.4v20.2h-17.65c-11.15,0-17.88-7.2-19.97-15.56-7.43,9.29-17.41,17.41-32.27,17.41-16.49,0-27.86-11.15-27.86-27.17,0-13.47,9.06-22.06,24.15-29.02,11.61-5.34,23.22-8.82,34.6-11.61v-15.32c0-11.38-6.97-17.18-20.9-17.18-5.11,0-9.75.7-13.7,1.63v22.06h-24.61c.93-11.38,8.82-20.43,18.58-26.47,9.75-6.27,21.59-9.75,33.67-9.75,19.5,0,31.58,9.29,31.58,29.02v61.76ZM866.22,174.46c7.43,0,13.47-2.55,18.34-6.5v-36.45c-8.59,2.32-16.02,4.88-23.22,8.59-7.66,3.95-11.15,8.82-11.15,17.18,0,11.15,6.27,17.18,16.02,17.18Z"/><path class="cls-2" d="M1134.21,173.01l15.79,9.81v6.04h-55.49v-6.04l14.86-9.81v-56.83c0-14.4-8.82-20.66-22.06-20.66-9.75,0-17.41,3.48-21.59,6.5v70.99l14.63,9.81v6.04h-55.26v-6.04l15.79-9.81V53.14l-17.42-8.13v-5.57l42.26-6.5v62.81c9.06-8.82,21.82-17.88,38.08-17.88,19.27,0,30.42,13.23,30.42,31.35v63.79Z"/><path class="cls-2" d="M939.73,188.85l-5.05-30.88h10.29l7.66,9.29c7.66,9.29,13.86,14.86,25.16,14.86,12.52,0,21.2-6.04,21.2-16.25,0-7.43-3.58-12.07-12.26-16.02-8.68-3.95-25.03-7.43-35.24-12.77-10.22-5.11-16.09-13.23-16.09-26.24,0-18.34,16.35-32.74,41.37-32.74,11.49,0,23.24,2.09,31.92,2.09h2.56l4.54,28.09h-10.28l-7.66-8.59c-7.66-8.59-12.07-13-21.58-13-11.49,0-19.41,5.57-19.41,14.86,0,6.97,4.34,10.68,12.52,14.4,8.17,3.71,25.03,6.97,34.73,12.07,9.71,5.34,16.35,13.23,16.35,27.17,0,20.2-16.86,35.53-43.16,35.53-12.26,0-23.5-1.86-33.97-1.86h-3.58Z"/><path class="cls-1" d="M156.8,0h69.61v9.06l-26.66,16.4-18.75,56.04h42.8l-5.11,15.28h-125.97l5.11,15.28h115.74l-5.11,15.28h-105.51l23.3,69.64,18.19-54.36h16.11l-27.27,81.5h-40.92l-32.38-96.78H15.34l-5.11-15.28h44.65l-5.11-15.28H5.11l-5.11-15.28h44.65L25.33,23.75.6,9.06V0h90.21v9.06l-23.07,13.01,19.88,59.43h77.28l19.32-57.73-27.41-14.71V0Z"/></g></svg>